<?xml version="1.0" encoding="UTF-8"?>
<svg id="Capa_1" xmlns="http://www.w3.org/2000/svg" viewBox="0 0 152.67 50.22">
  <defs>
    <style>
      .cls-1 {
        fill: #2581fe;
      }

      .cls-2 {
        fill: #171e28;
      }
    </style>
  </defs>
  <path class="cls-1" d="M12.59,10.73L8.94,0,.42,8.62l-.42,16.09,12.59-13.98Z"/>
  <path class="cls-1" d="M10.52,34.16s22.87-19.57,23.17-19.87c.3-.3,0-7.47,0-7.47h-10.74l-12.81,12.54L0,29.28v20.97h10.52v-16.09h0Z"/>
  <path class="cls-1" d="M33.69,43.2l-11.22-11.6-4.9,3.22-1.39,6.41,9.63,9.03h7.88v-7.06Z"/>
  <path class="cls-2" d="M46.08,48.27c-1.89-1.01-3.38-2.45-4.46-4.33-1.08-1.88-1.62-4.07-1.62-6.58s.55-4.67,1.65-6.56c1.1-1.89,2.6-3.34,4.5-4.35,1.91-1.01,4.04-1.52,6.41-1.52s4.5.5,6.41,1.52c1.91,1.01,3.41,2.46,4.5,4.35,1.1,1.89,1.65,4.08,1.65,6.56s-.56,4.67-1.67,6.56c-1.11,1.89-2.63,3.34-4.55,4.35-1.92,1.01-4.07,1.52-6.43,1.52s-4.5-.5-6.39-1.52h0ZM56.09,41.82c1-1.04,1.49-2.53,1.49-4.46s-.48-3.42-1.45-4.46c-.97-1.04-2.16-1.56-3.57-1.56s-2.64.51-3.6,1.54c-.95,1.03-1.43,2.52-1.43,4.48s.47,3.42,1.41,4.46c.94,1.04,2.12,1.56,3.53,1.56s2.62-.52,3.62-1.56Z"/>
  <path class="cls-2" d="M79.46,25.97c1.3-.69,2.79-1.04,4.46-1.04,1.99,0,3.8.5,5.41,1.52,1.62,1.01,2.9,2.45,3.83,4.33s1.41,4.06,1.41,6.54-.47,4.67-1.41,6.56-2.22,3.35-3.83,4.38c-1.62,1.03-3.42,1.54-5.41,1.54-1.7,0-3.19-.34-4.46-1.02-1.27-.68-2.27-1.58-2.99-2.71v3.38h-7.41V17.39h7.41v11.3c.69-1.13,1.69-2.04,2.99-2.73h0ZM85.5,32.96c-1.03-1.06-2.29-1.58-3.79-1.58s-2.72.53-3.75,1.6c-1.03,1.07-1.54,2.53-1.54,4.38s.51,3.31,1.54,4.38c1.03,1.07,2.27,1.6,3.75,1.6s2.73-.54,3.77-1.62c1.04-1.08,1.56-2.55,1.56-4.4s-.51-3.3-1.54-4.35Z"/>
  <path class="cls-2" d="M98.41,30.78c.94-1.88,2.22-3.32,3.83-4.33,1.62-1.01,3.42-1.52,5.41-1.52,1.7,0,3.2.35,4.48,1.04,1.28.69,2.27,1.6,2.97,2.73v-3.42h7.41v24.17h-7.41v-3.42c-.72,1.13-1.72,2.04-3.01,2.73-1.29.69-2.78,1.04-4.48,1.04-1.96,0-3.75-.51-5.37-1.54-1.62-1.03-2.9-2.48-3.83-4.38-.94-1.89-1.41-4.08-1.41-6.56s.47-4.66,1.41-6.54h0ZM113.56,32.99c-1.03-1.07-2.27-1.6-3.75-1.6s-2.72.53-3.75,1.58c-1.03,1.06-1.54,2.51-1.54,4.35s.51,3.32,1.54,4.4c1.03,1.08,2.27,1.62,3.75,1.62s2.72-.53,3.75-1.6c1.03-1.07,1.54-2.53,1.54-4.38s-.51-3.31-1.54-4.38Z"/>
  <path class="cls-2" d="M149.89,43.97c-.81,0-1.39-.16-1.73-.47-.35-.32-.52-.84-.52-1.56v-9.7h4.85v-6.15h-4.85v-5.89h-7.41v5.89h-6.54v-7.88h-7.41v32.05h7.41v-18.02h6.54v9.62c0,2.98.75,5.12,2.25,6.43,1.5,1.31,3.6,1.97,6.28,1.97h3.77v-6.28h-2.64,0Z"/>
</svg>